<svg width="48" height="60" fill="none" xmlns="http://www.w3.org/2000/svg"><path d="M24.302 6l-2.6-2.586L24.545.586 32 8l-7.454 7.414-2.843-2.828 2.6-2.586h-.173C13.024 10 4.02 18.954 4.02 30c0 5.523 2.25 10.523 5.89 14.142l-2.844 2.829C2.7 42.627 0 36.627 0 30 0 16.745 10.803 6 24.129 6h.172zM23.657 53.97l2.586 2.586-2.829 2.829L16 51.97l7.414-7.415 2.829 2.829-2.586 2.585h.171c11.046 0 20-8.954 20-20a19.937 19.937 0 00-5.857-14.142L40.799 13a23.925 23.925 0 017.03 16.97c0 13.255-10.746 24-24 24h-.172z" fill="#F1BE44"/><path fill-rule="evenodd" clip-rule="evenodd" d="M22.22 37h-9.16v-2.96l5.16-5.6c.52-.56.72-.92.72-1.52 0-.78-.44-1.32-1.28-1.32-.6 0-1.32.28-1.32 1.38h-3.28c0-2.8 2.12-4.34 4.6-4.34 2.64 0 4.56 1.62 4.56 4.3 0 1.5-.62 2.3-1.76 3.5l-3.4 3.6h5.16V37zm11.5-1.88h-1.06V37h-3.12v-1.88h-5.9V32l4.72-9.24h3.6L27.24 32h2.3v-1.88h3.12V32h1.06v3.12z" fill="#4F4F4F"/></svg>
