<?xml version="1.0" encoding="utf-8"?>
<!-- Generator: Adobe Illustrator 17.1.0, SVG Export Plug-In . SVG Version: 6.00 Build 0)  -->
<!DOCTYPE svg PUBLIC "-//W3C//DTD SVG 1.1//EN" "http://www.w3.org/Graphics/SVG/1.1/DTD/svg11.dtd">
<svg version="1.1" id="Слой_1" xmlns="http://www.w3.org/2000/svg" xmlns:xlink="http://www.w3.org/1999/xlink" x="0px" y="0px"
	 viewBox="0 0 197.4 31.5" enable-background="new 0 0 197.4 31.5" xml:space="preserve">
<g>
	<path fill="#fff" d="M0,30.9V7.2h8.7c4.9,0,8.1,2.2,8.1,6.2c0,2-1,4-2.8,5.1v0.1c2.5,0.8,3.7,3,3.7,5.4c0,2.4-0.9,4.1-2.6,5.4
		c-1.7,1.1-3.9,1.7-6.4,1.7L0,30.9L0,30.9z M5.8,16.4h3c1.4,0,2.1-0.9,2.1-2.2c0-1.2-0.7-2-2.2-2H5.8L5.8,16.4L5.8,16.4z M5.8,26
		h3.5c1.6,0,2.5-1.1,2.5-2.5c0-1.4-0.9-2.4-2.5-2.4H5.8V26z"/>
	<path fill="#fff" d="M23.8,10.3c2.3-2.3,5.3-3.5,8.9-3.5s6.6,1.1,8.9,3.5c2.3,2.3,3.5,5.1,3.5,8.7c0,3.6-1.1,6.5-3.5,8.9
		c-2.3,2.4-5.3,3.6-8.9,3.6s-6.6-1.2-8.9-3.6c-2.3-2.4-3.5-5.3-3.5-8.9C20.3,15.4,21.5,12.6,23.8,10.3z M28.1,24
		c1.2,1.4,2.8,2,4.6,2c1.9,0,3.4-0.6,4.6-2c1.2-1.4,1.9-3.1,1.9-5.1c0-1.9-0.6-3.6-1.9-4.9c-1.2-1.3-2.7-1.9-4.6-1.9
		c-1.9,0-3.4,0.6-4.6,1.9c-1.2,1.3-1.8,2.9-1.8,4.9C26.3,21,27,22.6,28.1,24z"/>
	<path fill="#fff" d="M51,10.3c2.3-2.3,5.3-3.5,8.9-3.5c3.6,0,6.6,1.1,8.9,3.5c2.3,2.3,3.5,5.1,3.5,8.7c0,3.6-1.1,6.5-3.5,8.9
		c-2.3,2.4-5.3,3.6-8.9,3.6s-6.6-1.2-8.9-3.6c-2.3-2.4-3.5-5.3-3.5-8.9C47.5,15.4,48.6,12.6,51,10.3z M55.3,24c1.2,1.4,2.8,2,4.6,2
		s3.4-0.6,4.6-2c1.2-1.4,1.9-3.1,1.9-5.1c0-1.9-0.6-3.6-1.9-4.9c-1.2-1.3-2.7-1.9-4.6-1.9s-3.4,0.6-4.6,1.9
		c-1.2,1.3-1.8,2.9-1.8,4.9C53.5,21,54.1,22.6,55.3,24z"/>
	<path fill="#fff" d="M77.3,23.5C78.8,24.9,81,26,83,26c1.6,0,2.4-0.7,2.4-1.6c0-1.7-2.6-2.3-5.2-3.6c-2.6-1.3-5.2-2.9-5.2-6.7
		c0-2.1,0.8-3.9,2.4-5.2c1.6-1.4,3.7-2,6.2-2c2.9,0,5.4,0.9,7.4,2.7l-2.4,4.7c-1.4-1.2-3.4-2.1-5.2-2.1c-1.7,0-2.5,0.6-2.5,1.7
		c0,1,1.1,1.9,2.7,2.4c3.1,1.3,7.8,2.6,7.8,7.7c0,2.1-0.8,3.9-2.3,5.3c-1.5,1.4-3.6,2.1-6.2,2.1c-3.2,0-6.4-1.1-8.6-3.4L77.3,23.5z"
		/>
	<path fill="#fff" d="M100.2,30.9V12.2H93v-5h20.2v5H106v18.7H100.2z"/>
	<path fill="#fff" d="M116.3,30.9V7.2h5.8v9.5h8.7V7.2h5.8v23.7h-5.8v-9.3h-8.7v9.3H116.3z"/>
	<path fill="#fff" d="M142.2,30.9V7.2h5.8v23.7H142.2z"/>
	<path fill="#fff" d="M182.1,30.9V7.2H197v5h-9.1v4.3h7.2v5h-7.2V26h9.5v5L182.1,30.9L182.1,30.9z"/>
	<polygon fill="#F1BE44" points="162.4,19.4 162.4,8.7 160.1,10 154.8,6.9 165.1,1 175.3,6.9 169.9,10 167.8,8.7 167.8,19.4
		165.1,21 	"/>
	<polygon fill="#fff" points="152.3,23.9 152.3,9.7 157.6,12.9 157.6,20.8 165.1,25.1 172.4,20.8 172.4,12.5 177.8,9.4
		177.8,23.9 165.1,31.3 	"/>
</g>
</svg>
