<svg xmlns="http://www.w3.org/2000/svg" width="230" height="36" viewBox="0 0 230 36">
    <g fill="#898F9D" fill-opacity=".4" fill-rule="nonzero">
        <path d="M0 34.766V7h10.322c5.814 0 9.61 2.577 9.61 7.264 0 2.343-1.186 4.686-3.322 5.974v.118c2.966.937 4.39 3.514 4.39 6.326s-1.068 4.803-3.085 6.326C15.898 34.298 13.288 35 10.322 35L0 34.766zm6.881-16.988h3.56c1.66 0 2.491-1.054 2.491-2.577 0-1.406-.83-2.343-2.61-2.343h-3.44v4.92zm0 11.247h4.153c1.898 0 2.966-1.289 2.966-2.929s-1.068-2.811-2.966-2.811H6.88v5.74zM28.093 11.11C30.783 8.408 34.29 7 38.5 7s7.718 1.291 10.407 4.11C51.597 13.81 53 17.096 53 21.323s-1.286 7.631-4.093 10.45C46.217 34.59 42.71 36 38.5 36s-7.718-1.409-10.407-4.227C25.403 28.955 24 25.551 24 21.323c0-4.226 1.403-7.513 4.093-10.214zm5.028 16.084c1.403 1.644 3.274 2.349 5.379 2.349 2.222 0 3.976-.705 5.379-2.349 1.403-1.643 2.222-3.64 2.222-5.988 0-2.23-.702-4.226-2.222-5.753-1.403-1.526-3.157-2.23-5.379-2.23-2.222 0-3.976.704-5.379 2.23-1.403 1.527-2.105 3.405-2.105 5.753 0 2.466.819 4.345 2.105 5.988zM59.093 11.11C61.783 8.408 65.29 7 69.5 7s7.718 1.291 10.407 4.11C82.597 13.81 84 17.096 84 21.323s-1.286 7.631-4.093 10.45C77.217 34.59 73.71 36 69.5 36s-7.718-1.409-10.407-4.227C56.403 28.955 55 25.551 55 21.323c0-4.226 1.286-7.513 4.093-10.214zm5.028 16.084c1.403 1.644 3.274 2.349 5.379 2.349 2.105 0 3.976-.705 5.379-2.349 1.403-1.643 2.222-3.64 2.222-5.988 0-2.23-.702-4.226-2.222-5.753-1.403-1.526-3.157-2.23-5.379-2.23-2.222 0-3.976.704-5.379 2.23-1.403 1.527-2.105 3.405-2.105 5.753 0 2.466.702 4.345 2.105 5.988zM89.509 25.971c1.754 1.6 4.327 2.858 6.666 2.858 1.872 0 2.807-.8 2.807-1.829 0-1.943-3.04-2.629-6.081-4.114-3.041-1.486-6.082-3.315-6.082-7.657 0-2.4.935-4.458 2.807-5.943C91.497 7.686 93.953 7 96.877 7c3.392 0 6.316 1.029 8.655 3.086l-2.807 5.371c-1.637-1.371-3.976-2.4-6.082-2.4-1.988 0-2.924.686-2.924 1.943 0 1.143 1.287 2.171 3.158 2.743 3.626 1.486 9.123 2.971 9.123 8.8 0 2.4-.936 4.457-2.69 6.057-1.754 1.6-4.21 2.4-7.252 2.4-3.742 0-7.485-1.257-10.058-3.886l3.509-5.143zM116.198 35V12.907H108V7h23v5.907h-8.198V35zM135 35V7h6.857v11.224h10.286V7H159v28h-6.857V24.013h-10.286V35zM165 35V7h7v28zM212 34.882V7h17.53v5.882h-10.706v5.06h8.47v5.882h-8.47v5.294H230V35zM188.898 21.16V8.855l-2.693 1.495L180 6.785 192.059 0 204 6.785l-6.322 3.565-2.458-1.495V21.16L192.059 23z"/>
        <path d="M177 26.553v-16.21l6.235 3.652v9.019l8.824 4.908 8.588-4.908v-9.475L207 10v16.553L192.059 35z"/>
    </g>
</svg>
